<svg xmlns="http://www.w3.org/2000/svg" xmlns:xlink="http://www.w3.org/1999/xlink" width="12" height="12" x="0" y="0" style="overflow:visible;enable-background:new 0 0 12 12" preserveAspectRatio="xMinYMid meet" version="1.1" viewBox="0 0 12 12" xml:space="preserve"><path style="fill:#999" d="M5,9c0,1.2,0.6,2.3,1.4,3H0V8.4l1.7-0.9C2.2,7.3,2.3,6.7,2,6.3c0,0-0.9-1.1-0.9-2.5	C1.1,1.7,2.4,0,4,0c1.6,0,2.9,1.7,2.9,3.8C6.9,5.2,6,6.3,6,6.3c0,0,0,0.1,0,0.1C5.4,7.1,5,8,5,9z M12,8h-2V6H8v2H6v2h2v2h2v-2h2V8z"/></svg>