<svg xmlns="http://www.w3.org/2000/svg" xmlns:xlink="http://www.w3.org/1999/xlink" width="12" height="12" x="0" y="0" style="overflow:visible;enable-background:new 0 0 12 12" preserveAspectRatio="xMinYMid meet" version="1.1" viewBox="0 0 12 12" xml:space="preserve"><path style="fill:#999" d="M6,0C2.7,0,0,2.7,0,6c0,3.3,2.7,6,6,6s6-2.7,6-6C12,2.7,9.3,0,6,0z M6,2.5c0.5,0,1,0.1,1.4,0.3	L2.8,7.4C2.6,7,2.5,6.5,2.5,6C2.5,4.1,4.1,2.5,6,2.5z M6,9.5c-0.5,0-1-0.1-1.4-0.3l4.6-4.6C9.4,5,9.5,5.5,9.5,6	C9.5,7.9,7.9,9.5,6,9.5z"/></svg>