<svg xmlns="http://www.w3.org/2000/svg" xmlns:xlink="http://www.w3.org/1999/xlink" width="12" height="12" x="0" y="0" style="overflow:visible;enable-background:new 0 0 12 12" preserveAspectRatio="xMinYMid meet" version="1.1" viewBox="0 0 12 12" xml:space="preserve"><path style="fill:#999" d="M12,6.4V8H8.9C9,7.8,9.1,7.4,9.1,6.9c0-1.8-1-3.2-2.3-3.7c0-0.1,0-0.2,0-0.3c0-1.6,1-2.9,2.2-2.9	c1.2,0,2.2,1.3,2.2,2.9c0,1.1-0.5,1.7-0.5,1.7c-0.3,0.4-0.2,1,0.3,1.2L12,6.4z M2.7,6.9c0-1.9,1.1-3.4,2.6-3.8c0-0.1,0-0.1,0-0.2	c0-1.6-1-2.9-2.2-2.9C1.9,0,0.9,1.3,0.9,2.9c0,1.1,0.5,1.7,0.5,1.7c0.3,0.4,0.2,1-0.3,1.3L0,6.4V8h2.9C2.8,7.8,2.7,7.4,2.7,6.9z M10.7,12c-0.1-0.5-0.4-0.9-0.8-1.1L7.8,9.8C7.3,9.5,7.2,9,7.6,8.6c0,0,0.5-0.6,0.5-1.7c0-1.6-1-2.9-2.2-2.9C4.7,4,3.7,5.3,3.7,6.9	c0,1.1,0.5,1.7,0.5,1.7c0.3,0.4,0.2,1-0.3,1.3l-2.1,1.1C1.5,11.1,1.2,11.6,1,12H10.7z"/></svg>