<svg xmlns="http://www.w3.org/2000/svg" xmlns:xlink="http://www.w3.org/1999/xlink" width="12" height="12" x="0" y="0" style="overflow:visible;enable-background:new 0 0 12 12" preserveAspectRatio="xMinYMid meet" version="1.1" viewBox="0 0 12 12" xml:space="preserve"><path style="fill:#999" d="M4.4,12H0V0h12v4.4C11.8,4.2,11.5,4,11,4V3H1v2h3.3C4.1,5.3,4,5.6,4,6v0H1v2h3v1H1v2h3	C4,11.4,4.2,11.8,4.4,12z M8.5,12l-1-1H7.3l-0.9,0.9c0,0-0.1,0-0.1,0.1H8.5z M11,7.5l1,1V6.3c0,0,0,0.1-0.1,0.1L11,7.3V7.5z M11.7,9.5L9.5,7.4l1.7-1.7C11.6,5.3,11.5,5,10.9,5H6C5.4,5,5,5.4,5,6v4.9c0,0.5,0.3,0.7,0.7,0.3l1.7-1.7l2.1,2.1	c0.4,0.4,1,0.4,1.4,0l0.7-0.7C12,10.6,12,9.9,11.7,9.5z"/></svg>