<svg xmlns="http://www.w3.org/2000/svg" xmlns:xlink="http://www.w3.org/1999/xlink" width="12" height="12" x="0" y="0" style="overflow:visible;enable-background:new -.4 -.3 12 12" preserveAspectRatio="xMinYMid meet" version="1.1" viewBox="-0.4 -0.3 12 12" xml:space="preserve"><path style="fill:#999" d="M7.8,5.6L11,2.4c0.4-0.4,0.4-1,0-1.4l-0.7-0.7c-0.4-0.4-1-0.4-1.4,0L5.6,3.5L2.4,0.3	C2-0.1,1.4-0.1,1,0.3L0.3,1c-0.4,0.4-0.4,1,0,1.4l3.2,3.2L0.3,8.9c-0.4,0.4-0.4,1,0,1.4L1,11c0.4,0.4,1,0.4,1.4,0l3.2-3.2L8.9,11	c0.4,0.4,1,0.4,1.4,0l0.7-0.7c0.4-0.4,0.4-1,0-1.4L7.8,5.6z"/></svg>