<svg xmlns="http://www.w3.org/2000/svg" xmlns:svg="http://www.w3.org/2000/svg" id="svg2" width="12" height="12" x="0" y="0" preserveAspectRatio="xMinYMid meet" version="1.1" viewBox="0 0 12 12" xml:space="preserve" style="overflow:visible;enable-background:new 0 0 12 12"><metadata id="metadata10"/><path style="fill:#999" id="path6" d="M 5.3,12 0,12 0,2.6 0,2.6 2.6,0 2.6,0 10,0 10,3.8 9,2.8 9,1 4,1 4,4 1,4 l 0,7 4,0 c 0,0.4 0.1,0.7 0.3,1 z"/><path style="fill:#999;overflow:visible" id="path6-1" d="m -0.05724243,3.0499999 z m 11.80000043,5 L 8.2427575,11.65 c -0.4,0.4 -1,0.4 -1.4,0 l -3.5,-3.7000001 c -0.4,-0.4 -0.3,-0.9 0.3,-0.9 l 2.3,0 0,-3 c 0,-0.5 0.5,-1 1.1,-1 l 1,0 c 0.5,0 0.9,0.5 0.9,1 l 0,3 2.5000005,0 c 0.5,0 0.7,0.6 0.3,1 z"/></svg>