<svg xmlns="http://www.w3.org/2000/svg" xmlns:xlink="http://www.w3.org/1999/xlink" width="12" height="12" x="0" y="0" style="overflow:visible;enable-background:new 0 0 12 12" preserveAspectRatio="xMinYMid meet" version="1.1" viewBox="0 0 12 12" xml:space="preserve"><path style="fill:#999" d="M7.5,1v5.7l2.1-2.1c0.4-0.4,1-0.4,1.4,0l0.7,0.7c0.4,0.4,0.4,1,0,1.4l-5,5c-0.4,0.4-1,0.4-1.4,0	L4.6,11c0,0,0,0,0,0L0.3,6.7c-0.4-0.4-0.4-1,0-1.4L1,4.6c0.4-0.4,1-0.4,1.4,0l2.1,2.1V1c0-0.5,0.5-1,1-1h1C7,0,7.5,0.5,7.5,1z"/></svg>