<svg xmlns="http://www.w3.org/2000/svg" xmlns:xlink="http://www.w3.org/1999/xlink" width="12" height="12" x="0" y="0" style="overflow:visible;enable-background:new 0 0 12 12" preserveAspectRatio="xMinYMid meet" version="1.1" viewBox="0 0 12 12" xml:space="preserve"><path style="fill:#999" d="M11,0H1C0.5,0,0,0.5,0,1v10c0,0.5,0.5,1,1,1h10c0.5,0,1-0.5,1-1V1C12,0.5,11.5,0,11,0z M7,3h1v1H7V3z M7,5h1v1H7V5z M6,10H2V9h4V10z M6,8H2V7h4V8z M6,6H2V5h4V6z M6,4H2V3h4V4z M7,7h1v1H7V7z M8,10H7V9h1V10z M10,10H9V9h1V10z M10,8H9	V7h1V8z M10,6H9V5h1V6z M10,4H9V3h1V4z"/></svg>