<svg xmlns="http://www.w3.org/2000/svg" xmlns:xlink="http://www.w3.org/1999/xlink" width="12" height="12" x="0" y="0" style="overflow:visible;enable-background:new 0 0 12 12" preserveAspectRatio="xMinYMid meet" version="1.1" viewBox="0 0 12 12" xml:space="preserve"><path style="fill:#999" d="M11,4.5H5.3l2.1-2.1c0.4-0.4,0.4-1,0-1.4L6.7,0.3c-0.4-0.4-1-0.4-1.4,0l-5,5c-0.4,0.4-0.4,1,0,1.4	L1,7.4c0,0,0,0,0,0l4.3,4.3c0.4,0.4,1,0.4,1.4,0L7.4,11c0.4-0.4,0.4-1,0-1.4L5.3,7.5H11c0.5,0,1-0.5,1-1v-1C12,4.9,11.5,4.5,11,4.5z"/></svg>