<svg xmlns="http://www.w3.org/2000/svg" xmlns:xlink="http://www.w3.org/1999/xlink" width="12" height="12" x="0" y="0" style="overflow:visible;enable-background:new 0 0 12 12" preserveAspectRatio="xMinYMid meet" version="1.1" viewBox="0 0 12 12" xml:space="preserve"><path style="fill:#999" d="M6.5,0h-1c-1.7,0-3,1.3-3,3h2c0-0.6,0.5-1,1-1h1c0.5,0,1,0.4,1,1v2L1,5C0.4,5,0,5.4,0,6l0,5	c0,0.6,0.4,1,1,1h10c0.6,0,1-0.4,1-1V6c0-0.6-0.4-1-1-1H9.5V3C9.5,1.3,8.2,0,6.5,0z M10,7.5v2C10,9.8,9.8,10,9.5,10L7,10L6.5,9	L6.4,8.9C6.8,8.7,7,8.4,7,8c0-0.5-0.4-1-1-1C5.5,7,5,7.5,5,8c0,0.4,0.2,0.7,0.6,0.9L5.5,9L5,10l-2.5,0C2.2,10,2,9.8,2,9.5v-2	C2,7.2,2.2,7,2.5,7h7C9.8,7,10,7.2,10,7.5z"/></svg>