<svg xmlns="http://www.w3.org/2000/svg" xmlns:xlink="http://www.w3.org/1999/xlink" width="12" height="12" x="0" y="0" style="overflow:visible;enable-background:new 0 0 12 12" preserveAspectRatio="xMinYMid meet" version="1.1" viewBox="0 0 12 12" xml:space="preserve"><path style="fill:#999" d="M6.5,0l-1,0c-1.7,0-3,1.3-3,3v2H1C0.5,5,0,5.5,0,6l0,5c0,0.6,0.4,1,1,1h10c0.6,0,1-0.4,1-1l0-2	c0,1.7-1.4,3-3,3c-1.7,0-3-1.3-3-3c0-1.7,1.3-3,3-3c1.7,0,3,1.3,3,3V6c0-0.5-0.5-1-1-1L9.5,5l0-2C9.5,1.3,8.2,0,6.5,0z M7.5,3v2h-3	V3c0-0.6,0.5-1,1-1h1C7.1,2,7.5,2.4,7.5,3z M11,9v1H9H8V9V7h1v2H11z"/></svg>