<svg xmlns="http://www.w3.org/2000/svg" xmlns:xlink="http://www.w3.org/1999/xlink" width="12" height="12" x="0" y="0" style="overflow:visible;enable-background:new 0 0 12 12" preserveAspectRatio="xMinYMid meet" version="1.1" viewBox="0 0 12 12" xml:space="preserve"><path style="fill:#999" d="M11.7,8L8,11.7C7.8,11.9,7.5,12,7.3,12c-0.3,0-0.5-0.1-0.7-0.3L3,8.1c-0.4-0.4-0.4-1,0-1.4L3.7,6	c0.4-0.4,1-0.4,1.4,0l2.2,2.2l2.3-2.3c0.4-0.4,1-0.4,1.4,0l0.7,0.7C12.1,7,12.1,7.6,11.7,8z M6.9,6c0.4,0.4,1,0.4,1.4,0L9,5.3	c0.4-0.4,0.4-1,0-1.4L5.3,0.3c-0.4-0.4-1-0.4-1.4,0L3.2,1l0,0L0.3,3.9c-0.4,0.4-0.4,1,0,1.4L1,6.1c0.4,0.4,1,0.4,1.4,0l2.2-2.2	L6.9,6z"/></svg>