<svg xmlns="http://www.w3.org/2000/svg" xmlns:xlink="http://www.w3.org/1999/xlink" width="12" height="12" x="0" y="0" style="overflow:visible;enable-background:new 0 0 12 12" preserveAspectRatio="xMinYMid meet" version="1.1" viewBox="0 0 12 12" xml:space="preserve"><path style="fill:#999" d="M5.3,12H0V2.6v0L2.6,0h0H10v3.8l-1-1V1H4v3H1v7h4C5,11.4,5.1,11.7,5.3,12z M11.8,7L8.3,3.4	C7.9,3,7.3,3,6.9,3.4L3.4,7.1C3,7.5,3.1,8,3.7,8H6v3c0,0.5,0.5,1,1.1,1h1C8.6,12,9,11.5,9,11V8h2.5C12,8,12.2,7.4,11.8,7z"/></svg>