<svg xmlns="http://www.w3.org/2000/svg" xmlns:xlink="http://www.w3.org/1999/xlink" width="12" height="12" x="0" y="0" style="overflow:visible;enable-background:new 0 0 12 12" preserveAspectRatio="xMinYMid meet" version="1.1" viewBox="0 0 12 12" xml:space="preserve"><path style="fill:#999" d="M12,7v4c0,0.5-0.5,1-1,1h-0.5l0,0H1c-0.5,0-1-0.5-1-1V7c0-0.5,0.5-1,1-1h0.5c0.5,0,1,0.5,1,1l0,2.5h7	V7c0-0.5,0.5-1,1-1H11C11.5,6,12,6.4,12,7z M10,3L9.6,2.7c-0.4-0.4-1-0.4-1.4,0l-1,1l0-2.7c0-0.5-0.5-1-1-1L5.7,0c-0.5,0-1,0.5-1,1	l0,2.7l-1.1-1c-0.4-0.4-1-0.4-1.4,0L1.9,3c-0.4,0.4-0.4,1,0,1.4l3.3,3.3C5.4,7.9,5.7,8,6,8c0.3,0,0.5-0.1,0.7-0.3L10,4.4	C10.4,4,10.4,3.4,10,3z"/></svg>