<svg xmlns="http://www.w3.org/2000/svg" xmlns:xlink="http://www.w3.org/1999/xlink" width="12" height="12" x="0" y="0" style="overflow:visible;enable-background:new 0 0 12 12" preserveAspectRatio="xMinYMid meet" version="1.1" viewBox="0 0 12 12" xml:space="preserve"><path style="fill:#999" d="M1,4.5h5.7L4.6,2.4C4.2,2,4.2,1.4,4.6,1l0.7-0.7c0.4-0.4,1-0.4,1.4,0l5,5c0.4,0.4,0.4,1,0,1.4L11,7.4	c0,0,0,0,0,0l-4.3,4.3c-0.4,0.4-1,0.4-1.4,0L4.6,11c-0.4-0.4-0.4-1,0-1.4l2.1-2.1H1c-0.5,0-1-0.5-1-1v-1C0,4.9,0.5,4.5,1,4.5z"/></svg>