<svg xmlns="http://www.w3.org/2000/svg" xmlns:xlink="http://www.w3.org/1999/xlink" width="12" height="12" x="0" y="0" style="overflow:visible;enable-background:new 0 0 12 12" preserveAspectRatio="xMinYMid meet" version="1.1" viewBox="0 0 12 12" xml:space="preserve"><path style="fill:#999" d="M6.5,0l-1,0c-1.7,0-3,1.3-3,3v2H1C0.5,5,0,5.5,0,6l0,5c0,0.6,0.4,1,1,1h10c0.5,0,1-0.5,1-1l0-5	c0-0.6-0.5-1-1-1H9.5l0-2C9.5,1.3,8.2,0,6.5,0z M7,8c0,0.4-0.2,0.7-0.6,0.9L6.5,9L7,10H6H5l0.5-1l0.1-0.1C5.2,8.7,5,8.4,5,8	c0-0.5,0.4-1,1-1S7,7.5,7,8z M7.5,3v2l-3,0V3c0-0.6,0.5-1,1-1h1C7.1,2,7.5,2.4,7.5,3z"/></svg>