<svg xmlns="http://www.w3.org/2000/svg" xmlns:xlink="http://www.w3.org/1999/xlink" width="24" height="24" x="0" y="0" style="overflow:visible;enable-background:new -.1 -2 24 24" preserveAspectRatio="xMinYMid meet" version="1.1" viewBox="-0.1 -2 24 24" xml:space="preserve"><linearGradient id="SVGID_1_" x1="11.935" x2="11.935" y1="0" y2="20" gradientUnits="userSpaceOnUse"><stop offset="0" style="stop-color:#76a1f0"/><stop offset="1" style="stop-color:#6b90d5"/></linearGradient><path style="fill:url(#SVGID_1_)" d="M21.9,19c0,0.5-0.5,1-1,1h-18c-0.5,0-1-0.5-1-1V1.1c0-0.5,0.5-1.1,1-1.1h4	c0.5,0,1.4,0.3,1.8,0.6l0.9,0.7C10.1,1.7,10.9,2,11.4,2l9.5,0c0.5,0,1,0.5,1,1V19z"/><linearGradient id="SVGID_2_" x1="11.935" x2="11.935" y1=".989" y2="19" gradientUnits="userSpaceOnUse"><stop offset="0" style="stop-color:#bbe0f7"/><stop offset="1" style="stop-color:#82b4fb"/></linearGradient><path style="fill:url(#SVGID_2_)" d="M2.9,19V1.1C2.9,1.1,3,1,3,1l3.9,0c0.3,0,0.9,0.2,1.2,0.4L9,2.2C9.7,2.6,10.7,3,11.4,3l9.5,0	v16H2.9z"/><linearGradient id="SVGID_3_" x1="11.935" x2="11.935" y1="1.992" y2="18" gradientUnits="userSpaceOnUse"><stop offset="0" style="stop-color:#95bff8"/><stop offset=".557" style="stop-color:#84adef"/><stop offset="1" style="stop-color:#7ca4eb"/></linearGradient><path style="fill:url(#SVGID_3_)" d="M3.9,18V2l3,0C7,2,7.4,2.1,7.5,2.2L8.4,3c0.8,0.6,2.1,1,3,1l8.5,0v14H3.9z"/><linearGradient id="SVGID_4_" x1="11.936" x2="11.936" y1="5" y2="20" gradientUnits="userSpaceOnUse"><stop offset="0" style="stop-color:#76a1f0"/><stop offset="1" style="stop-color:#6b90d5"/></linearGradient><path style="fill:url(#SVGID_4_)" d="M23,19c0,0.5-0.5,1-1.1,1h-20c-0.5,0-1-0.5-1.1-1L0,6c0-0.5,0.4-1,0.9-1h22c0.5,0,1,0.5,0.9,1	L23,19z"/><linearGradient id="SVGID_5_" x1="11.967" x2="11.967" y1="5.954" y2="19" gradientUnits="userSpaceOnUse"><stop offset="0" style="stop-color:#bbe0f7"/><stop offset="1" style="stop-color:#82b4fb"/></linearGradient><path style="fill:url(#SVGID_5_)" d="M1.9,19c0,0-0.1-0.1-0.1-0.1L1,6l21.9,0L22,18.9c0,0,0,0.1-0.1,0.1H1.9z"/><linearGradient id="SVGID_6_" x1="11.966" x2="11.966" y1="6.957" y2="18" gradientUnits="userSpaceOnUse"><stop offset="0" style="stop-color:#95bff8"/><stop offset=".557" style="stop-color:#84adef"/><stop offset="1" style="stop-color:#7ca4eb"/></linearGradient><polygon style="fill:url(#SVGID_6_)" points="2.8 18 2.1 7 21.9 7 21.1 18"/></svg>