<svg xmlns="http://www.w3.org/2000/svg" xmlns:xlink="http://www.w3.org/1999/xlink" width="24" height="24" x="0" y="0" style="overflow:visible;enable-background:new -2 0 24 24" preserveAspectRatio="xMinYMid meet" version="1.1" viewBox="-2 0 24 24" xml:space="preserve"><linearGradient id="SVGID_1_" x1="12.001" x2="12.001" y1="0" y2="24" gradientUnits="userSpaceOnUse"><stop offset="0" style="stop-color:#90c50e"/><stop offset="1" style="stop-color:#70a034"/></linearGradient><rect style="fill:url(#SVGID_1_)" width="16" height="24" x="4"/><linearGradient id="SVGID_2_" x1="12.001" x2="12.001" y1="1" y2="23" gradientUnits="userSpaceOnUse"><stop offset="0" style="stop-color:#d9f991"/><stop offset=".239" style="stop-color:#d7f88d"/><stop offset=".45" style="stop-color:#d1f383"/><stop offset=".651" style="stop-color:#c6ec71"/><stop offset=".844" style="stop-color:#b7e257"/><stop offset="1" style="stop-color:#a8d73d"/></linearGradient><rect style="fill:url(#SVGID_2_)" width="14" height="22" x="5" y="1"/><linearGradient id="SVGID_3_" x1="12.001" x2="12.001" y1="2" y2="22" gradientUnits="userSpaceOnUse"><stop offset="0" style="stop-color:#b3e810"/><stop offset="1" style="stop-color:#90c60d"/></linearGradient><rect style="fill:url(#SVGID_3_)" width="12" height="20" x="6" y="2"/><linearGradient id="SVGID_4_" x1="12.001" x2="12.001" y1="4" y2="9" gradientUnits="userSpaceOnUse"><stop offset="0" style="stop-color:#90c50e"/><stop offset="1" style="stop-color:#70a034"/></linearGradient><path style="fill:url(#SVGID_4_)" d="M7,4v5h10V4H7z M16,8H8V5h8V8z"/><linearGradient id="SVGID_5_" x1="2.5" x2="2.5" y1="0" y2="24" gradientUnits="userSpaceOnUse"><stop offset="0" style="stop-color:#656565"/><stop offset=".013" style="stop-color:#646464"/><stop offset=".445" style="stop-color:#3c3c3c"/><stop offset=".789" style="stop-color:#242424"/><stop offset="1" style="stop-color:#1b1b1b"/></linearGradient><path style="fill:url(#SVGID_5_)" d="M4,0H2.6H1C0.5,0,0,0.5,0,1v22c0,0.5,0.5,1,1,1h1.6H4h1v-1V1V0H4z"/><linearGradient id="SVGID_6_" x1="2.5" x2="2.5" y1="1" y2="23" gradientUnits="userSpaceOnUse"><stop offset="0" style="stop-color:#8e8e8e"/><stop offset=".042" style="stop-color:#8a8a8a"/><stop offset=".461" style="stop-color:#626262"/><stop offset=".795" style="stop-color:#4a4a4a"/><stop offset="1" style="stop-color:#414141"/></linearGradient><rect style="fill:url(#SVGID_6_)" width="3" height="22" x="1" y="1"/><linearGradient id="SVGID_7_" x1="2.5" x2="2.5" y1="2" y2="22" gradientUnits="userSpaceOnUse"><stop offset="0" style="stop-color:#7c7c7c"/><stop offset=".39" style="stop-color:#5c5c5c"/><stop offset=".768" style="stop-color:#444"/><stop offset="1" style="stop-color:#3b3b3b"/></linearGradient><rect style="fill:url(#SVGID_7_)" width="1" height="20" x="2" y="2"/></svg>