<svg xmlns="http://www.w3.org/2000/svg" xmlns:xlink="http://www.w3.org/1999/xlink" width="24" height="24" x="0" y="0" style="overflow:visible;enable-background:new 0 0 24 24" preserveAspectRatio="xMinYMid meet" version="1.1" viewBox="0 0 24 24" xml:space="preserve"><linearGradient id="SVGID_1_" x1="11.985" x2="11.985" y1="0" y2="24.016" gradientUnits="userSpaceOnUse"><stop offset="0" style="stop-color:#f0a829"/><stop offset="1" style="stop-color:#c7671a"/></linearGradient><path style="fill:url(#SVGID_1_)" d="M14.4,0L0.6,13.9c-0.8,0.8-0.8,2.1,0,2.8l6.7,6.7c0.8,0.8,2,0.8,2.8,0L24,9.6V0H14.4z"/><linearGradient id="SVGID_2_" x1="11.985" x2="11.985" y1="1" y2="23.016" gradientUnits="userSpaceOnUse"><stop offset="0" style="stop-color:#ffeba8"/><stop offset="1" style="stop-color:#f8be27"/></linearGradient><path style="fill:url(#SVGID_2_)" d="M8.7,23c-0.3,0-0.5-0.1-0.7-0.3L1.3,16C1.1,15.8,1,15.6,1,15.3c0-0.3,0.1-0.5,0.3-0.7L14.9,1	H23v8.2L9.4,22.7C9.2,22.9,9,23,8.7,23C8.7,23,8.7,23,8.7,23z"/><linearGradient id="SVGID_3_" x1="11.984" x2="11.984" y1="2" y2="22.014" gradientUnits="userSpaceOnUse"><stop offset="0" style="stop-color:#ffc30f"/><stop offset="1" style="stop-color:#f5ae0d"/></linearGradient><polygon style="fill:url(#SVGID_3_)" points="2 15.3 15.3 2 22 2 22 8.8 8.7 22"/><linearGradient id="SVGID_4_" x1="8.72" x2="8.72" y1="9.969" y2="20.631" gradientUnits="userSpaceOnUse"><stop offset="0" style="stop-color:#76a1f0"/><stop offset="1" style="stop-color:#6b90d5"/></linearGradient><polygon style="fill:url(#SVGID_4_)" points="3.4 15.3 8.7 10 14.1 15.3 8.7 20.6"/><linearGradient id="SVGID_5_" x1="11.146" x2="11.146" y1="22.031" y2="23.871" gradientTransform="matrix(0.7071 -0.7071 0.7071 0.7071 -14.0909 8.2514)" gradientUnits="userSpaceOnUse"><stop offset="0" style="stop-color:#57c3f6"/><stop offset=".165" style="stop-color:#83d3f8"/><stop offset=".355" style="stop-color:#afe3fb"/><stop offset=".54" style="stop-color:#d2effd"/><stop offset=".713" style="stop-color:#ebf8fe"/><stop offset=".871" style="stop-color:#fafdff"/><stop offset="1" style="stop-color:#fff"/></linearGradient><polygon style="fill:url(#SVGID_5_)" points="7.4 17.9 8.7 19.2 12.6 15.3 11.3 14"/><path style="fill:#f2efd5" d="M12.6,15.3L12.3,15c-0.3,0.2-0.8,0.5-1.4,1.1c-1.1,0.9-1,0.5-2,0.9c-0.4,0.2-0.9,0.6-1.4,1l1.2,1.2	L12.6,15.3z"/><linearGradient id="SVGID_6_" x1="8.388" x2="13.904" y1="23.104" y2="23.104" gradientTransform="matrix(0.7071 -0.7071 0.7071 0.7071 -14.0909 8.2514)" gradientUnits="userSpaceOnUse"><stop offset="0" style="stop-color:#f8e5b5"/><stop offset="1" style="stop-color:#f9e5b6"/></linearGradient><path style="fill:url(#SVGID_6_)" d="M12.6,15.3l-0.2-0.2c-0.4,0.2-0.6,0.6-1.3,1.2C10,17.2,10,16.6,9,17c-0.4,0.2-0.9,0.6-1.3,1.1	l1.1,1.1L12.6,15.3z"/><linearGradient id="SVGID_7_" x1="12.171" x2="10.12" y1="17.657" y2="22.732" gradientTransform="matrix(0.7071 -0.7071 0.7071 0.7071 -14.0909 8.2514)" gradientUnits="userSpaceOnUse"><stop offset="0" style="stop-color:#57c3f6"/><stop offset=".005" style="stop-color:#59c4f6"/><stop offset=".124" style="stop-color:#85d3f8"/><stop offset=".247" style="stop-color:#aae1fa"/><stop offset=".376" style="stop-color:#c9ecfc"/><stop offset=".51" style="stop-color:#e1f4fd"/><stop offset=".652" style="stop-color:#f2fafe"/><stop offset=".807" style="stop-color:#fcfeff"/><stop offset="1" style="stop-color:#fff"/></linearGradient><polygon style="fill:url(#SVGID_7_)" points="4.8 15.3 7.4 17.9 11.3 14 8.7 11.4"/><path style="fill:#fff" d="M9,11.6C8.7,11.8,8.7,12,8.7,12s-0.4-0.1-0.6,0.4c-0.1,0.4,0.3,0.5,0.3,0.5s0,0-0.1,0.1	c0,0.1,0.1,0.1,0.1,0.1s-0.2,0.1-0.1,0.4c0.1,0.3,0.3,0.3,0.3,0.3s-0.1,0.5,0.4,0.6c0.4,0.1,0.5-0.3,0.5-0.3s0.3,0,0.6-0.2	c0.3-0.2,0.4-0.5,0.4-0.5s0.1,0,0.2,0L9,11.6z"/><path style="fill:#fff" d="M7.9,14.5c0,0-0.1,0-0.2,0.1c0,0.1,0.1,0.2,0.1,0.2s0,0,0,0c0,0,0,0,0,0s-0.1,0,0,0.1	C7.8,15,7.9,15,7.9,15s0,0.1,0.1,0.2c0.1,0,0.1-0.1,0.1-0.1s0.1,0,0.2,0c0.1-0.1,0.1-0.1,0.1-0.1s0.1,0,0.1-0.1c0-0.1,0-0.2,0-0.2	s0.2,0,0.1-0.2c-0.1-0.1-0.2,0-0.2,0s-0.1-0.1-0.1-0.1c-0.1,0-0.1,0.1-0.1,0.1s0,0,0,0c0,0-0.1,0-0.1,0S8,14.3,7.9,14.3	C7.8,14.4,7.9,14.5,7.9,14.5z"/><path style="fill:#fff" d="M19.6,8.4l-5.5,5.5l-0.7-0.7l5.5-5.5L19.6,8.4z M17.5,6.3L12,11.8l0.7,0.7L18.2,7L17.5,6.3z M16.1,4.9l-5.5,5.5l0.7,0.7l5.5-5.5L16.1,4.9z"/><ellipse style="fill:#fff" cx="19.7" cy="4.3" rx="1.3" ry="1.3"/></svg>