<svg xmlns="http://www.w3.org/2000/svg" xmlns:xlink="http://www.w3.org/1999/xlink" width="24" height="24" x="0" y="0" style="overflow:visible;enable-background:new -4.2 -.3 24 24" preserveAspectRatio="xMinYMid meet" version="1.1" viewBox="-4.2 -0.3 24 24" xml:space="preserve"><linearGradient id="SVGID_1_" x1="7.824" x2="7.824" y1="0" y2="23.326" gradientUnits="userSpaceOnUse"><stop offset="0" style="stop-color:#76a1f0"/><stop offset="1" style="stop-color:#6b90d5"/></linearGradient><path style="fill:url(#SVGID_1_)" d="M2.4,8.4C1.1,8.4,0,7.5,0,6.1C0,3.3,2.8,0,7.7,0c3.3,0,7.9,2.2,7.9,6c0,2-1.2,3.5-3.6,4.4	c-3.3,1.2-1.4,3.7-4.5,3.7c-1.3,0-2.1-0.8-2.1-2.1c0-2.7,2.8-4.2,2.8-6.9c0-0.7-0.3-1.6-1.1-1.6c-0.9,0-1,0.9-1,1.5	C5.8,7.1,4.5,8.4,2.4,8.4z M7.3,23.3c-2,0-3.6-1.6-3.6-3.6c0-2,1.6-3.6,3.6-3.6c2,0,3.6,1.6,3.6,3.6C10.8,21.7,9.2,23.3,7.3,23.3z"/><linearGradient id="SVGID_2_" x1="7.824" x2="7.824" y1="1" y2="22.326" gradientUnits="userSpaceOnUse"><stop offset="0" style="stop-color:#bbe0f7"/><stop offset="1" style="stop-color:#82b4fb"/></linearGradient><path style="fill:url(#SVGID_2_)" d="M7.3,22.3c-1.4,0-2.6-1.1-2.6-2.6c0-1.4,1.1-2.6,2.6-2.6s2.6,1.1,2.6,2.6	C9.8,21.2,8.7,22.3,7.3,22.3z M7.6,13.1c-0.8,0-1.1-0.4-1.1-1.1c0-1.1,0.6-1.9,1.2-2.9c0.7-1.1,1.5-2.3,1.5-4c0-1.3-0.7-2.6-2.1-2.6	c-1.8,0-2,1.7-2,2.4C4.9,6,4.3,7.4,2.4,7.4C1.6,7.4,1,6.9,1,6.1C1,4,3.1,1,7.7,1c2.9,0,6.9,1.9,6.9,5c0,1.6-1,2.7-2.9,3.4	c-2,0.8-2.5,2-2.9,2.8C8.5,13,8.5,13.1,7.6,13.1z"/><linearGradient id="SVGID_3_" x1="7.824" x2="7.824" y1="2.099" y2="21.326" gradientUnits="userSpaceOnUse"><stop offset="0" style="stop-color:#95bff8"/><stop offset=".557" style="stop-color:#84adef"/><stop offset="1" style="stop-color:#7ca4eb"/></linearGradient><path style="fill:url(#SVGID_3_)" d="M7.3,21.3c-0.9,0-1.6-0.7-1.6-1.6s0.7-1.6,1.6-1.6c0.9,0,1.6,0.7,1.6,1.6S8.2,21.3,7.3,21.3z M7.6,12.1c-0.1,0-0.1,0-0.1,0c0,0,0-0.1,0-0.1c0-0.8,0.5-1.5,1-2.3c0.8-1.2,1.7-2.6,1.7-4.6c0-1.3-0.5-2.3-1.3-3	c2.2,0.4,4.8,1.8,4.8,3.9c0,0.4,0,1.6-2.3,2.5C9,9.4,8.3,11,7.9,11.9c0,0.1-0.1,0.2-0.1,0.2C7.8,12.1,7.7,12.1,7.6,12.1z M2.4,6.4	C2,6.4,2,6.2,2,6.1c0-1.1,0.9-2.7,2.7-3.5C4.4,3.1,4.1,3.8,4,4.8C3.9,6.2,3.1,6.4,2.4,6.4z"/></svg>