<svg xmlns="http://www.w3.org/2000/svg" xmlns:xlink="http://www.w3.org/1999/xlink" width="24" height="24" x="0" y="0" style="overflow:visible;enable-background:new 0 0 24 24" preserveAspectRatio="xMinYMid meet" version="1.1" viewBox="0 0 24 24" xml:space="preserve"><linearGradient id="SVGID_1_" x1="7.768" x2="7.768" y1="10.223" y2="23.98" gradientUnits="userSpaceOnUse"><stop offset="0" style="stop-color:#db6d17"/><stop offset="1" style="stop-color:#bf3b08"/></linearGradient><path style="fill:url(#SVGID_1_)" d="M10.9,19.1c-1.1-0.8-1.7-1.1-2-2.4c-0.2-1.1-1.3-6.4-1.3-6.4l-4.9,1c0,0,0.9,4.6,1.8,9	c0.9,4.4,1,4.3,6.8,3.1C13.7,22.8,12.8,20.5,10.9,19.1z"/><linearGradient id="SVGID_2_" x1="7.857" x2="7.857" y1="11.399" y2="22.98" gradientUnits="userSpaceOnUse"><stop offset="0" style="stop-color:#f6a55e"/><stop offset="1" style="stop-color:#ea5b03"/></linearGradient><path style="fill:url(#SVGID_2_)" d="M7,23c-0.8,0-0.9,0-1.5-3l-1.6-8l2.9-0.6L8,16.9c0.3,1.6,1,2.1,1.9,2.7l0.4,0.3	c1.1,0.8,1.5,1.7,1.4,2.1c0,0.2-0.5,0.3-0.6,0.3l-0.5,0.1C9,22.7,7.8,23,7,23L7,23z"/><linearGradient id="SVGID_3_" x1="7.737" x2="7.737" y1="12.576" y2="21.893" gradientUnits="userSpaceOnUse"><stop offset="0" style="stop-color:#f17219"/><stop offset="1" style="stop-color:#ea5b03"/></linearGradient><path style="fill:url(#SVGID_3_)" d="M7.7,21.9c-0.7,0-0.7,0-1.2-2.1l-1.4-7l1-0.2L7,17.1c0.4,1.9,1.4,2.7,2.3,3.3l0.4,0.3	C10.8,21.6,10.6,21.4,7.7,21.9z"/><linearGradient id="SVGID_4_" x1="11.001" x2="11.001" y1="0" y2="19.004" gradientUnits="userSpaceOnUse"><stop offset="0" style="stop-color:#c3c3c3"/><stop offset="1" style="stop-color:#acacac"/></linearGradient><path style="fill:url(#SVGID_4_)" d="M12.5,5H4.6C2.1,5,0,7.2,0,9.5C0,11.8,2.1,14,4.6,14h7.6c0,0,5.7,0,9.8,5c0-4.9,0-9.5,0-9.5	s0-4.3,0-9.5C18.7,4.8,12.5,5,12.5,5z"/><linearGradient id="SVGID_5_" x1="11.001" x2="11.001" y1="2.608" y2="16.534" gradientUnits="userSpaceOnUse"><stop offset="0" style="stop-color:#e9e9e9"/><stop offset="1" style="stop-color:#c4c4c4"/></linearGradient><path style="fill:url(#SVGID_5_)" d="M21,16.5C17,13,12.5,13,12.2,13H4.6C2.7,13,1,11.4,1,9.5S2.7,6,4.6,6h7.8	c0.3,0,4.9-0.2,8.5-3.4V16.5z"/><linearGradient id="SVGID_6_" x1="11.001" x2="11.001" y1="4.599" y2="14.527" gradientUnits="userSpaceOnUse"><stop offset="0" style="stop-color:#f7f7f7"/><stop offset=".104" style="stop-color:#fcfcfc"/><stop offset=".329" style="stop-color:#fff"/><stop offset=".569" style="stop-color:#e8e8e8"/><stop offset=".815" style="stop-color:#d7d7d7"/><stop offset="1" style="stop-color:#d1d1d1"/></linearGradient><path style="fill:url(#SVGID_6_)" d="M20,14.5C16.2,12,12.4,12,12.2,12H4.6C3.3,12,2,10.8,2,9.5S3.3,7,4.6,7h7.8	c0.2,0,4-0.2,7.5-2.4V14.5z"/><linearGradient id="SVGID_7_" x1="5.501" x2="5.501" y1="5.002" y2="14.002" gradientUnits="userSpaceOnUse"><stop offset="0" style="stop-color:#db6d17"/><stop offset="1" style="stop-color:#bf3b08"/></linearGradient><path style="fill:url(#SVGID_7_)" d="M11,5H4.6C2.1,5,0,7.2,0,9.5C0,11.8,2.1,14,4.6,14H11V5z"/><linearGradient id="SVGID_8_" x1="6.001" x2="6.001" y1="6.002" y2="13.002" gradientUnits="userSpaceOnUse"><stop offset="0" style="stop-color:#f6a55e"/><stop offset="1" style="stop-color:#ea5b03"/></linearGradient><path style="fill:url(#SVGID_8_)" d="M11,6H4.6C2.7,6,1,7.6,1,9.5S2.7,13,4.6,13H11V6z"/><linearGradient id="SVGID_9_" x1="6.501" x2="6.501" y1="7.002" y2="12.002" gradientUnits="userSpaceOnUse"><stop offset=".22" style="stop-color:#f6a55e"/><stop offset=".508" style="stop-color:#f28c3f"/><stop offset="1" style="stop-color:#ea5b03"/></linearGradient><path style="fill:url(#SVGID_9_)" d="M11,7H4.6C3.3,7,2,8.2,2,9.5S3.3,12,4.6,12H11V7z"/><linearGradient id="SVGID_10_" x1="22.002" x2="22.002" y1=".001" y2="19.002" gradientUnits="userSpaceOnUse"><stop offset="0" style="stop-color:#db6d17"/><stop offset="1" style="stop-color:#bf3b08"/></linearGradient><path style="fill:url(#SVGID_10_)" d="M20,17c0,1.1,0.9,2,2,2l0,0c1.1,0,2-0.9,2-2V2c0-1.1-0.9-2-2-2l0,0c-1.1,0-2,0.9-2,2V17z"/><linearGradient id="SVGID_11_" x1="22.002" x2="22.002" y1="1.002" y2="18.002" gradientUnits="userSpaceOnUse"><stop offset="0" style="stop-color:#f6a55e"/><stop offset="1" style="stop-color:#ea5b03"/></linearGradient><path style="fill:url(#SVGID_11_)" d="M22,18c-0.6,0-1-0.4-1-1V2c0-0.6,0.4-1,1-1s1,0.4,1,1v15C23,17.6,22.6,18,22,18z"/><linearGradient id="SVGID_12_" x1="22.002" x2="22.002" y1="1.002" y2="18.002" gradientUnits="userSpaceOnUse"><stop offset="0" style="stop-color:#f17219"/><stop offset=".09" style="stop-color:#f38a39"/><stop offset=".183" style="stop-color:#f59e54"/><stop offset=".238" style="stop-color:#f6a55e"/><stop offset=".246" style="stop-color:#f5a35c"/><stop offset=".381" style="stop-color:#ec8740"/><stop offset=".515" style="stop-color:#e5722c"/><stop offset=".649" style="stop-color:#e06620"/><stop offset=".78" style="stop-color:#df621c"/><stop offset="1" style="stop-color:#d64701"/></linearGradient><path style="fill:url(#SVGID_12_)" d="M22,18c-0.6,0-1-0.4-1-1V2c0-0.6,0.4-1,1-1s1,0.4,1,1v15C23,17.6,22.6,18,22,18z"/></svg>