<svg xmlns="http://www.w3.org/2000/svg" xmlns:xlink="http://www.w3.org/1999/xlink" width="24" height="24" x="0" y="0" style="overflow:visible;enable-background:new -2 0 24 24" preserveAspectRatio="xMinYMid meet" version="1.1" viewBox="-2 0 24 24" xml:space="preserve"><linearGradient id="SVGID_1_" x1="17.5" x2="17.5" y1="16" y2="22" gradientUnits="userSpaceOnUse"><stop offset="0" style="stop-color:#db6d17"/><stop offset="1" style="stop-color:#bf3b08"/></linearGradient><rect style="fill:url(#SVGID_1_)" width="5" height="6" x="15" y="16"/><linearGradient id="SVGID_2_" x1="17.5" x2="17.5" y1="17" y2="21" gradientUnits="userSpaceOnUse"><stop offset="0" style="stop-color:#f6a55e"/><stop offset="1" style="stop-color:#ea5b03"/></linearGradient><rect style="fill:url(#SVGID_2_)" width="3" height="4" x="16" y="17"/><linearGradient id="SVGID_3_" x1="17.5" x2="17.5" y1="18" y2="20" gradientUnits="userSpaceOnUse"><stop offset="0" style="stop-color:#f17219"/><stop offset="1" style="stop-color:#ea5b03"/></linearGradient><rect style="fill:url(#SVGID_3_)" width="1" height="2" x="17" y="18"/><linearGradient id="SVGID_4_" x1="17.5" x2="17.5" y1="9" y2="15.001" gradientUnits="userSpaceOnUse"><stop offset="0" style="stop-color:#90c50e"/><stop offset="1" style="stop-color:#70a034"/></linearGradient><rect style="fill:url(#SVGID_4_)" width="5" height="6" x="15" y="9"/><linearGradient id="SVGID_5_" x1="17.5" x2="17.5" y1="10" y2="14.001" gradientUnits="userSpaceOnUse"><stop offset="0" style="stop-color:#d9f991"/><stop offset=".239" style="stop-color:#d7f88d"/><stop offset=".45" style="stop-color:#d1f383"/><stop offset=".651" style="stop-color:#c6ec71"/><stop offset=".844" style="stop-color:#b7e257"/><stop offset="1" style="stop-color:#a8d73d"/></linearGradient><rect style="fill:url(#SVGID_5_)" width="3" height="4" x="16" y="10"/><linearGradient id="SVGID_6_" x1="17.5" x2="17.5" y1="11" y2="13" gradientUnits="userSpaceOnUse"><stop offset="0" style="stop-color:#b3e810"/><stop offset="1" style="stop-color:#90c60d"/></linearGradient><rect style="fill:url(#SVGID_6_)" width="1" height="2" x="17" y="11"/><linearGradient id="SVGID_7_" x1="8.499" x2="8.499" y1="0" y2="24" gradientUnits="userSpaceOnUse"><stop offset="0" style="stop-color:#95bff8"/><stop offset=".557" style="stop-color:#84adef"/><stop offset="1" style="stop-color:#7ca4eb"/></linearGradient><rect style="fill:url(#SVGID_7_)" width="17" height="24"/><linearGradient id="SVGID_8_" x1="8.499" x2="8.499" y1="1" y2="23" gradientUnits="userSpaceOnUse"><stop offset="0" style="stop-color:#e7f4fc"/><stop offset="1" style="stop-color:#deeffc"/></linearGradient><rect style="fill:url(#SVGID_8_)" width="15" height="22" x="1" y="1"/><linearGradient id="SVGID_9_" x1="8.499" x2="8.499" y1="2" y2="22" gradientUnits="userSpaceOnUse"><stop offset="0" style="stop-color:#cee9f9"/><stop offset="1" style="stop-color:#bbdff8"/></linearGradient><rect style="fill:url(#SVGID_9_)" width="13" height="20" x="2" y="2"/><linearGradient id="SVGID_10_" x1="17.5" x2="17.5" y1="2" y2="8" gradientUnits="userSpaceOnUse"><stop offset="0" style="stop-color:#76a1f0"/><stop offset="1" style="stop-color:#6b90d5"/></linearGradient><rect style="fill:url(#SVGID_10_)" width="5" height="6" x="15" y="2"/><linearGradient id="SVGID_11_" x1="17.5" x2="17.5" y1="3" y2="7" gradientUnits="userSpaceOnUse"><stop offset="0" style="stop-color:#bbe0f7"/><stop offset="1" style="stop-color:#82b4fb"/></linearGradient><rect style="fill:url(#SVGID_11_)" width="3" height="4" x="16" y="3"/><linearGradient id="SVGID_12_" x1="17.5" x2="17.5" y1="4" y2="6" gradientUnits="userSpaceOnUse"><stop offset="0" style="stop-color:#95bff8"/><stop offset=".557" style="stop-color:#84adef"/><stop offset="1" style="stop-color:#7ca4eb"/></linearGradient><rect style="fill:url(#SVGID_12_)" width="1" height="2" x="17" y="4"/><linearGradient id="SVGID_13_" x1="12.425" x2="12.425" y1="10.729" y2="15.97" gradientUnits="userSpaceOnUse"><stop offset="0" style="stop-color:#76a1f0"/><stop offset=".055" style="stop-color:#739de9"/><stop offset=".204" style="stop-color:#6f95de"/><stop offset=".415" style="stop-color:#6c91d7"/><stop offset="1" style="stop-color:#6b90d5"/></linearGradient><path style="fill:url(#SVGID_13_)" d="M12.7,15.2C12,15.7,11.5,16,11,16c-0.3,0-0.5-0.1-0.7-0.3C10.1,15.5,10,15.3,10,15	c0-0.4,0.2-0.7,0.5-1c0.3-0.3,1-0.7,2.2-1.2v-0.5c0-0.4,0-0.6-0.1-0.7c0-0.1-0.1-0.2-0.2-0.3c-0.1-0.1-0.2-0.1-0.4-0.1	c-0.2,0-0.4,0.1-0.6,0.2c-0.1,0.1-0.1,0.1-0.1,0.2c0,0.1,0,0.2,0.2,0.3c0.1,0.2,0.2,0.3,0.2,0.4c0,0.2-0.1,0.3-0.2,0.4	c-0.1,0.1-0.3,0.2-0.5,0.2c-0.2,0-0.4-0.1-0.6-0.2s-0.2-0.3-0.2-0.5c0-0.3,0.1-0.5,0.3-0.7c0.2-0.2,0.5-0.4,0.9-0.5s0.7-0.2,1.1-0.2	c0.5,0,0.9,0.1,1.1,0.3c0.3,0.2,0.5,0.4,0.5,0.7c0.1,0.2,0.1,0.5,0.1,1v1.9c0,0.2,0,0.4,0,0.4c0,0.1,0,0.1,0.1,0.1c0,0,0.1,0,0.1,0	c0.1,0,0.2-0.1,0.3-0.2l0.2,0.1c-0.2,0.3-0.4,0.5-0.6,0.6c-0.2,0.1-0.4,0.2-0.7,0.2c-0.3,0-0.5-0.1-0.7-0.2	C12.8,15.6,12.7,15.4,12.7,15.2z M12.7,14.8v-1.7c-0.4,0.3-0.8,0.5-1,0.8c-0.1,0.2-0.2,0.4-0.2,0.6c0,0.2,0.1,0.3,0.2,0.4	c0.1,0.1,0.2,0.1,0.4,0.1C12.2,15.1,12.4,15,12.7,14.8z"/><linearGradient id="SVGID_14_" x1="6.354" x2="6.354" y1="8.267" y2="15.701" gradientUnits="userSpaceOnUse"><stop offset="0" style="stop-color:#76a1f0"/><stop offset=".055" style="stop-color:#739de9"/><stop offset=".204" style="stop-color:#6f95de"/><stop offset=".415" style="stop-color:#6c91d7"/><stop offset="1" style="stop-color:#6b90d5"/></linearGradient><path style="fill:url(#SVGID_14_)" d="M7,13.6H4.4l-0.3,0.7c-0.1,0.2-0.2,0.4-0.2,0.6c0,0.2,0.1,0.4,0.2,0.5	c0.1,0.1,0.3,0.1,0.7,0.1v0.2H2.5v-0.2c0.3,0,0.5-0.1,0.6-0.3c0.2-0.2,0.4-0.5,0.6-1.1l2.6-5.8h0.1l2.6,6c0.2,0.6,0.5,0.9,0.6,1.1	c0.1,0.1,0.3,0.2,0.5,0.2v0.2H6.7v-0.2h0.1c0.3,0,0.5,0,0.6-0.1c0.1-0.1,0.1-0.1,0.1-0.2c0-0.1,0-0.1,0-0.2c0,0-0.1-0.2-0.2-0.4	L7,13.6z M6.8,13.2l-1.1-2.5l-1.1,2.5H6.8z"/></svg>