<svg xmlns="http://www.w3.org/2000/svg" xmlns:xlink="http://www.w3.org/1999/xlink" width="24" height="24" x="0" y="0" style="overflow:visible;enable-background:new -3 0 24 24" preserveAspectRatio="xMinYMid meet" version="1.1" viewBox="-3 0 24 24" xml:space="preserve"><linearGradient id="SVGID_1_" x1="9.499" x2="9.499" y1="0" y2="24" gradientUnits="userSpaceOnUse"><stop offset="0" style="stop-color:#95bff8"/><stop offset=".557" style="stop-color:#84adef"/><stop offset="1" style="stop-color:#7ca4eb"/></linearGradient><polygon style="fill:url(#SVGID_1_)" points="11.5 0 0 0 0 24 19 24 19 7.9"/><linearGradient id="SVGID_2_" x1="9.499" x2="9.499" y1="1" y2="23" gradientUnits="userSpaceOnUse"><stop offset="0" style="stop-color:#e7f4fc"/><stop offset="1" style="stop-color:#deeffc"/></linearGradient><polygon style="fill:url(#SVGID_2_)" points="1 23 1 1 11.1 1 18 8.3 18 23"/><linearGradient id="SVGID_3_" x1="9.499" x2="9.499" y1="2" y2="22" gradientUnits="userSpaceOnUse"><stop offset="0" style="stop-color:#cee9f9"/><stop offset="1" style="stop-color:#bbdff8"/></linearGradient><polygon style="fill:url(#SVGID_3_)" points="2 22 2 2 10.6 2 17 8.7 17 22"/><linearGradient id="SVGID_4_" x1="14.245" x2="14.245" y1="0" y2="9.359" gradientUnits="userSpaceOnUse"><stop offset="0" style="stop-color:#95bff8"/><stop offset=".557" style="stop-color:#84adef"/><stop offset="1" style="stop-color:#7ca4eb"/></linearGradient><path style="fill:url(#SVGID_4_)" d="M10,9c0,0,5.2-1.5,9,0.4c0-0.1,0-1.5,0-1.5L11.5,0c0,0-1.8,0-2,0C12.1,3.7,10,9,10,9z"/><linearGradient id="SVGID_5_" x1="11.322" x2="14.45" y1="7.545" y2="4.417" gradientUnits="userSpaceOnUse"><stop offset="0" style="stop-color:#e7f4fc"/><stop offset=".518" style="stop-color:#e5f3fc"/><stop offset=".705" style="stop-color:#def0fb"/><stop offset=".837" style="stop-color:#d3ebfa"/><stop offset=".872" style="stop-color:#cee9f9"/><stop offset="1" style="stop-color:#bdd8f0"/></linearGradient><path style="fill:url(#SVGID_5_)" d="M17.5,7.8c-0.9-0.2-2-0.3-3.1-0.3c-1.1,0-2.1,0.1-3,0.3c0.4-1.6,0.7-4.1-0.2-6.4L17.5,7.8z"/></svg>