<svg xmlns="http://www.w3.org/2000/svg" xmlns:xlink="http://www.w3.org/1999/xlink" width="24" height="24" x="0" y="0" style="overflow:visible;enable-background:new 0 -2 24 24" preserveAspectRatio="xMinYMid meet" version="1.1" viewBox="0 -2 24 24" xml:space="preserve"><linearGradient id="SVGID_1_" x1="11.999" x2="11.999" y1="0" y2="20" gradientUnits="userSpaceOnUse"><stop offset="0" style="stop-color:#f0a829"/><stop offset="1" style="stop-color:#c7671a"/></linearGradient><rect style="fill:url(#SVGID_1_)" width="22" height="20" x="1"/><linearGradient id="SVGID_2_" x1="11.999" x2="11.999" y1="1" y2="19" gradientUnits="userSpaceOnUse"><stop offset="0" style="stop-color:#ffeba8"/><stop offset="1" style="stop-color:#f8be27"/></linearGradient><rect style="fill:url(#SVGID_2_)" width="20" height="18" x="2" y="1"/><linearGradient id="SVGID_3_" x1="11.999" x2="11.999" y1="2" y2="18" gradientUnits="userSpaceOnUse"><stop offset="0" style="stop-color:#ffc30f"/><stop offset="1" style="stop-color:#f5ae0d"/></linearGradient><rect style="fill:url(#SVGID_3_)" width="18" height="16" x="3" y="2"/><linearGradient id="SVGID_4_" x1="11.999" x2="11.999" y1="0" y2="7" gradientUnits="userSpaceOnUse"><stop offset="0" style="stop-color:#f0a829"/><stop offset="1" style="stop-color:#c7671a"/></linearGradient><rect style="fill:url(#SVGID_4_)" width="24" height="7"/><linearGradient id="SVGID_5_" x1="11.999" x2="11.999" y1="1" y2="6" gradientUnits="userSpaceOnUse"><stop offset="0" style="stop-color:#ffeba8"/><stop offset="1" style="stop-color:#f8be27"/></linearGradient><rect style="fill:url(#SVGID_5_)" width="22" height="5" x="1" y="1"/><linearGradient id="SVGID_6_" x1="11.999" x2="11.999" y1="2" y2="5" gradientUnits="userSpaceOnUse"><stop offset="0" style="stop-color:#ffc30f"/><stop offset="1" style="stop-color:#f5ae0d"/></linearGradient><rect style="fill:url(#SVGID_6_)" width="20" height="3" x="2" y="2"/><linearGradient id="SVGID_7_" x1="11.499" x2="11.499" y1="0" y2="13.001" gradientUnits="userSpaceOnUse"><stop offset="0" style="stop-color:#8d470d"/><stop offset="1" style="stop-color:#7c3d09"/></linearGradient><polygon style="fill:url(#SVGID_7_)" points="9 0 9 3 9 10 9 13 11.5 11 14 13 14 10 14 3 14 0"/><linearGradient id="SVGID_8_" x1="11.499" x2="11.499" y1="1" y2="10.935" gradientUnits="userSpaceOnUse"><stop offset="0" style="stop-color:#d58738"/><stop offset="1" style="stop-color:#ab551f"/></linearGradient><polygon style="fill:url(#SVGID_8_)" points="10 1 10 4 10 7.9 10 10.9 11.5 9.7 13 10.9 13 7.9 13 4 13 1"/><linearGradient id="SVGID_9_" x1="11.5" x2="11.5" y1="2" y2="8.871" gradientUnits="userSpaceOnUse"><stop offset="0" style="stop-color:#d0813a"/><stop offset="1" style="stop-color:#af551d"/></linearGradient><polygon style="fill:url(#SVGID_9_)" points="11 2 11 5 11 5.8 11 8.8 11.5 8.4 12 8.9 12 5.9 12 5 12 2"/></svg>