<svg xmlns="http://www.w3.org/2000/svg" xmlns:xlink="http://www.w3.org/1999/xlink" width="24" height="24" x="0" y="0" style="overflow:visible;enable-background:new 0 0 24 24" preserveAspectRatio="xMinYMid meet" version="1.1" viewBox="0 0 24 24" xml:space="preserve"><linearGradient id="SVGID_1_" x1="20" x2="20" y1="8" y2="24" gradientUnits="userSpaceOnUse"><stop offset="0" style="stop-color:#76a1f0"/><stop offset="1" style="stop-color:#6b90d5"/></linearGradient><rect style="fill:url(#SVGID_1_)" width="8" height="16" x="16" y="8"/><linearGradient id="SVGID_2_" x1="20" x2="20" y1="9" y2="23" gradientUnits="userSpaceOnUse"><stop offset="0" style="stop-color:#bbe0f7"/><stop offset="1" style="stop-color:#82b4fb"/></linearGradient><rect style="fill:url(#SVGID_2_)" width="6" height="14" x="17" y="9"/><linearGradient id="SVGID_3_" x1="20" x2="20" y1="10" y2="22" gradientUnits="userSpaceOnUse"><stop offset="0" style="stop-color:#95bff8"/><stop offset=".557" style="stop-color:#84adef"/><stop offset="1" style="stop-color:#7ca4eb"/></linearGradient><rect style="fill:url(#SVGID_3_)" width="4" height="12" x="18" y="10"/><linearGradient id="SVGID_4_" x1="11.999" x2="11.999" y1="0" y2="24" gradientUnits="userSpaceOnUse"><stop offset="0" style="stop-color:#90c50e"/><stop offset="1" style="stop-color:#70a034"/></linearGradient><rect style="fill:url(#SVGID_4_)" width="8" height="24" x="8"/><linearGradient id="SVGID_5_" x1="11.999" x2="11.999" y1="1" y2="23" gradientUnits="userSpaceOnUse"><stop offset="0" style="stop-color:#d9f991"/><stop offset=".239" style="stop-color:#d7f88d"/><stop offset=".45" style="stop-color:#d1f383"/><stop offset=".651" style="stop-color:#c6ec71"/><stop offset=".844" style="stop-color:#b7e257"/><stop offset="1" style="stop-color:#a8d73d"/></linearGradient><rect style="fill:url(#SVGID_5_)" width="6" height="22" x="9" y="1"/><linearGradient id="SVGID_6_" x1="11.999" x2="11.999" y1="2" y2="22" gradientUnits="userSpaceOnUse"><stop offset="0" style="stop-color:#b3e810"/><stop offset="1" style="stop-color:#90c60d"/></linearGradient><rect style="fill:url(#SVGID_6_)" width="4" height="20" x="10" y="2"/><linearGradient id="SVGID_7_" x1="4" x2="4" y1="12" y2="24" gradientUnits="userSpaceOnUse"><stop offset="0" style="stop-color:#f0a829"/><stop offset="1" style="stop-color:#c7671a"/></linearGradient><rect style="fill:url(#SVGID_7_)" width="8" height="12" y="12"/><linearGradient id="SVGID_8_" x1="4" x2="4" y1="13" y2="23" gradientUnits="userSpaceOnUse"><stop offset="0" style="stop-color:#ffeba8"/><stop offset="1" style="stop-color:#f8be27"/></linearGradient><rect style="fill:url(#SVGID_8_)" width="6" height="10" x="1" y="13"/><linearGradient id="SVGID_9_" x1="4" x2="4" y1="14" y2="22" gradientUnits="userSpaceOnUse"><stop offset="0" style="stop-color:#ffc30f"/><stop offset="1" style="stop-color:#f5ae0d"/></linearGradient><rect style="fill:url(#SVGID_9_)" width="4" height="8" x="2" y="14"/></svg>