<svg xmlns="http://www.w3.org/2000/svg" xmlns:xlink="http://www.w3.org/1999/xlink" width="16" height="16" x="0" y="0" style="overflow:visible;enable-background:new 0 0 16 16" preserveAspectRatio="xMinYMid meet" version="1.1" viewBox="0 0 16 16" xml:space="preserve"><g><path style="fill:#fff" d="M16,15c0,0.5-0.5,1-1,1H1c-0.5,0-1-0.5-1-1V1c0-0.5,0.5-1,1-1h14c0.5,0,1,0.5,1,1V15z"/></g><path style="fill:#999" d="M15,0H1C0.5,0,0,0.5,0,1v14c0,0.5,0.5,1,1,1h14c0.5,0,1-0.5,1-1V1C16,0.5,15.5,0,15,0z M15,14	c0,0.5-0.5,1-1,1H2c-0.5,0-1-0.5-1-1V2c0-0.5,0.5-1,1-1h12c0.5,0,1,0.5,1,1V14z"/></svg>