<svg xmlns="http://www.w3.org/2000/svg" xmlns:xlink="http://www.w3.org/1999/xlink" width="16" height="16" x="0" y="0" style="overflow:visible;enable-background:new 0 0 16 16" preserveAspectRatio="xMinYMid meet" version="1.1" viewBox="0 0 16 16" xml:space="preserve"><path style="fill:#999" d="M15,16H1v-1h14V16z M14,10H9.2C9.1,9.2,9,8.4,9,7.9c0-1.8,2-3.5,2-4.9c0-1.7-1.3-3-3-3S5,1.3,5,3	c0,1.4,1.9,3.2,2,4.9c0,0.5,0,1.2-0.1,2.1H2c-1.1,0-2,0.9-2,2v2c0,0,0,0,0,0l16,0c0,0,0,0,0,0v-2C16,10.9,15.1,10,14,10z"/></svg>