<svg xmlns="http://www.w3.org/2000/svg" xmlns:xlink="http://www.w3.org/1999/xlink" width="16" height="16" x="0" y="0" style="overflow:visible;enable-background:new -.3 0 16 16" preserveAspectRatio="xMinYMid meet" version="1.1" viewBox="-0.3 0 16 16" xml:space="preserve"><path style="fill:#999" d="M7,3.7l0.3-0.3c0.6-0.6,1.7-0.6,2.3,0l0.1,0.1l3.1-3.1c0.6-0.6,1.7-0.6,2.3,0l0.2,0.2	c0.6,0.6,0.6,1.7,0,2.3l-3.1,3.1c0.6,0.6,0.6,1.7,0,2.3l-0.3,0.3L7,3.7z M8.1,15.6c-1.9,1-8.7-6-8.1-9.3c0.1-0.7,2.8,0.8,6.1-2	l5.4,5.4C11,11.2,9.6,14.8,8.1,15.6z M10.4,9.9L6,5.6C3.9,7.1,2,7.1,1,7.1c0.2,1.4,1.5,3.6,3.4,5.4h0c1.7,1.7,2.9,2.2,3.2,2.2	C8.3,14.3,9.4,12.5,10.4,9.9z"/></svg>