<svg xmlns="http://www.w3.org/2000/svg" xmlns:xlink="http://www.w3.org/1999/xlink" width="24" height="24" x="0" y="0" style="overflow:visible;enable-background:new 0 -2 24 24" preserveAspectRatio="xMinYMid meet" version="1.1" viewBox="0 -2 24 24" xml:space="preserve"><linearGradient id="SVGID_1_" x1="18" x2="18" y1="10" y2="20" gradientUnits="userSpaceOnUse"><stop offset="0" style="stop-color:#f0a829"/><stop offset="1" style="stop-color:#c7671a"/></linearGradient><rect style="fill:url(#SVGID_1_)" width="10" height="10" x="13" y="10"/><linearGradient id="SVGID_2_" x1="18" x2="18" y1="11" y2="19" gradientUnits="userSpaceOnUse"><stop offset="0" style="stop-color:#ffeba8"/><stop offset="1" style="stop-color:#f8be27"/></linearGradient><rect style="fill:url(#SVGID_2_)" width="8" height="8" x="14" y="11"/><linearGradient id="SVGID_3_" x1="18" x2="18" y1="12" y2="18" gradientUnits="userSpaceOnUse"><stop offset="0" style="stop-color:#ffc30f"/><stop offset="1" style="stop-color:#f5ae0d"/></linearGradient><rect style="fill:url(#SVGID_3_)" width="6" height="6" x="15" y="12"/><linearGradient id="SVGID_4_" x1="18" x2="18" y1="10" y2="14.001" gradientUnits="userSpaceOnUse"><stop offset="0" style="stop-color:#f0a829"/><stop offset="1" style="stop-color:#c7671a"/></linearGradient><rect style="fill:url(#SVGID_4_)" width="12" height="4" x="12" y="10"/><linearGradient id="SVGID_5_" x1="18" x2="18" y1="11" y2="13.001" gradientUnits="userSpaceOnUse"><stop offset="0" style="stop-color:#ffc30f"/><stop offset="1" style="stop-color:#f5ae0d"/></linearGradient><rect style="fill:url(#SVGID_5_)" width="10" height="2" x="13" y="11"/><linearGradient id="SVGID_6_" x1="18" x2="18" y1="10" y2="16.423" gradientUnits="userSpaceOnUse"><stop offset="0" style="stop-color:#8d470d"/><stop offset="1" style="stop-color:#7c3d09"/></linearGradient><polygon style="fill:url(#SVGID_6_)" points="17 10 17 11.7 17 15 17 16.4 18 15.5 19 16.4 19 15 19 11.7 19 10"/><linearGradient id="SVGID_7_" x1="6" x2="6" y1="10" y2="20" gradientUnits="userSpaceOnUse"><stop offset="0" style="stop-color:#f0a829"/><stop offset="1" style="stop-color:#c7671a"/></linearGradient><rect style="fill:url(#SVGID_7_)" width="10" height="10" x="1" y="10"/><linearGradient id="SVGID_8_" x1="6" x2="6" y1="11" y2="19" gradientUnits="userSpaceOnUse"><stop offset="0" style="stop-color:#ffeba8"/><stop offset="1" style="stop-color:#f8be27"/></linearGradient><rect style="fill:url(#SVGID_8_)" width="8" height="8" x="2" y="11"/><linearGradient id="SVGID_9_" x1="6" x2="6" y1="12" y2="18" gradientUnits="userSpaceOnUse"><stop offset="0" style="stop-color:#ffc30f"/><stop offset="1" style="stop-color:#f5ae0d"/></linearGradient><rect style="fill:url(#SVGID_9_)" width="6" height="6" x="3" y="12"/><linearGradient id="SVGID_10_" x1="6" x2="6" y1="10" y2="14.001" gradientUnits="userSpaceOnUse"><stop offset="0" style="stop-color:#f0a829"/><stop offset="1" style="stop-color:#c7671a"/></linearGradient><rect style="fill:url(#SVGID_10_)" width="12" height="4" y="10"/><linearGradient id="SVGID_11_" x1="6" x2="6" y1="11" y2="13.001" gradientUnits="userSpaceOnUse"><stop offset="0" style="stop-color:#ffc30f"/><stop offset="1" style="stop-color:#f5ae0d"/></linearGradient><rect style="fill:url(#SVGID_11_)" width="10" height="2" x="1" y="11"/><linearGradient id="SVGID_12_" x1="6" x2="6" y1="10" y2="16.423" gradientUnits="userSpaceOnUse"><stop offset="0" style="stop-color:#8d470d"/><stop offset="1" style="stop-color:#7c3d09"/></linearGradient><polygon style="fill:url(#SVGID_12_)" points="5 10 5 11.7 5 15 5 16.4 6 15.5 7 16.4 7 15 7 11.7 7 10"/><linearGradient id="SVGID_13_" x1="11.999" x2="11.999" y1="0" y2="10" gradientUnits="userSpaceOnUse"><stop offset="0" style="stop-color:#f0a829"/><stop offset="1" style="stop-color:#c7671a"/></linearGradient><rect style="fill:url(#SVGID_13_)" width="10" height="10" x="7"/><linearGradient id="SVGID_14_" x1="11.999" x2="11.999" y1="1" y2="9" gradientUnits="userSpaceOnUse"><stop offset="0" style="stop-color:#ffeba8"/><stop offset="1" style="stop-color:#f8be27"/></linearGradient><rect style="fill:url(#SVGID_14_)" width="8" height="8" x="8" y="1"/><linearGradient id="SVGID_15_" x1="11.999" x2="11.999" y1="2" y2="8" gradientUnits="userSpaceOnUse"><stop offset="0" style="stop-color:#ffc30f"/><stop offset="1" style="stop-color:#f5ae0d"/></linearGradient><rect style="fill:url(#SVGID_15_)" width="6" height="6" x="9" y="2"/><linearGradient id="SVGID_16_" x1="11.999" x2="11.999" y1="0" y2="4" gradientUnits="userSpaceOnUse"><stop offset="0" style="stop-color:#f0a829"/><stop offset="1" style="stop-color:#c7671a"/></linearGradient><rect style="fill:url(#SVGID_16_)" width="12" height="4" x="6"/><linearGradient id="SVGID_17_" x1="11.999" x2="11.999" y1="1" y2="3" gradientUnits="userSpaceOnUse"><stop offset="0" style="stop-color:#ffc30f"/><stop offset="1" style="stop-color:#f5ae0d"/></linearGradient><rect style="fill:url(#SVGID_17_)" width="10" height="2" x="7" y="1"/><linearGradient id="SVGID_18_" x1="11.999" x2="11.999" y1="0" y2="6.423" gradientUnits="userSpaceOnUse"><stop offset="0" style="stop-color:#8d470d"/><stop offset="1" style="stop-color:#7c3d09"/></linearGradient><polygon style="fill:url(#SVGID_18_)" points="11 0 11 1.7 11 5 11 6.4 12 5.5 13 6.4 13 5 13 1.7 13 0"/></svg>