<svg xmlns="http://www.w3.org/2000/svg" xmlns:xlink="http://www.w3.org/1999/xlink" width="16" height="16" x="0" y="0" style="overflow:visible;enable-background:new -2 -1 16 16" preserveAspectRatio="xMinYMid meet" version="1.1" viewBox="-2 -1 16 16" xml:space="preserve"><path style="fill:#999" d="M12,11c0,1.2,0,2,0,2c0,1-2.7,1.9-6,1.9c-3.3,0-6-0.8-6-1.9c0,0,0-0.8,0-2c0,1,2.7,1.9,6,1.9	C9.3,12.9,12,12.1,12,11z M6,9.9C2.7,9.9,0,9.1,0,8c0,1.2,0,2,0,2c0,1,2.7,1.9,6,1.9c3.3,0,6-0.8,6-1.9c0,0,0-0.8,0-2	C12,9.1,9.3,9.9,6,9.9z M6,6.9C2.7,6.9,0,6.1,0,5c0,1.2,0,2,0,2c0,1,2.7,1.9,6,1.9c3.3,0,6-0.8,6-1.9c0,0,0-0.8,0-2	C12,6.1,9.3,6.9,6,6.9z M12,1.9C12,0.8,9.3,0,6,0C2.7,0,0,0.8,0,1.9C0,1.9,0,4,0,4c0,1,2.7,1.9,6,1.9c3.3,0,6-0.8,6-1.9	C12,4,12,1.9,12,1.9z"/></svg>