<svg xmlns="http://www.w3.org/2000/svg" xmlns:xlink="http://www.w3.org/1999/xlink" width="16" height="16" x="0" y="0" style="overflow:visible;enable-background:new -.1 0 16 16" preserveAspectRatio="xMinYMid meet" version="1.1" viewBox="-0.1 0 16 16" xml:space="preserve"><path style="fill:#999" d="M15.6,7.3l-0.7-0.7c-0.4-0.4-1.1-0.4-1.4,0l-4,4V1c0-0.5-0.4-1-1-1h-1c-0.5,0-1,0.5-1,1v9.6l-4-4	C2,6.2,1.4,6.2,1,6.6L0.3,7.3c-0.4,0.4-0.4,1,0,1.4l7,7c0.4,0.4,1,0.4,1.4,0L9.4,15c0,0,0,0,0,0l6.2-6.2C16,8.4,16,7.7,15.6,7.3z"/></svg>