<svg xmlns="http://www.w3.org/2000/svg" xmlns:xlink="http://www.w3.org/1999/xlink" width="16" height="16" x="0" y="0" style="overflow:visible;enable-background:new 0 0 16 16" preserveAspectRatio="xMinYMid meet" version="1.1" viewBox="0 0 16 16" xml:space="preserve"><path style="fill:#999" d="M15.7,7.3l-2.5-2.5c-0.4-0.4-0.7-0.3-0.7,0.3v1.6h-3v-3H11c0.5,0,0.7-0.3,0.3-0.7L8.7,0.3	c-0.4-0.4-1-0.4-1.4,0L4.8,2.9C4.4,3.2,4.5,3.6,5,3.6h1.5v3h-3V5c0-0.5-0.3-0.7-0.7-0.3L0.3,7.3c-0.4,0.4-0.4,1,0,1.4l2.5,2.5	c0.4,0.4,0.7,0.3,0.7-0.3V9.6h3v3H5c-0.5,0-0.7,0.2-0.3,0.6l2.5,2.5c0.4,0.4,1,0.4,1.4,0l2.6-2.5c0.4-0.4,0.3-0.6-0.3-0.6H9.5v-3h3	V11c0,0.5,0.3,0.7,0.7,0.3l2.5-2.5C16.1,8.3,16.1,7.7,15.7,7.3z"/></svg>