<svg xmlns="http://www.w3.org/2000/svg" xmlns:xlink="http://www.w3.org/1999/xlink" width="12" height="12" x="0" y="0" style="overflow:visible;enable-background:new -.1 -.1 12 12" preserveAspectRatio="xMinYMid meet" version="1.1" viewBox="-0.1 -0.1 12 12" xml:space="preserve"><path style="fill:#999" d="M11.6,5.2L9.8,3.5C9.4,3.1,8.9,3.3,8.9,3.8v1.1h-2v-2h1.1c0.5,0,0.7-0.5,0.3-0.9L6.6,0.3	c-0.4-0.4-1-0.4-1.4,0L3.5,2.1C3.1,2.5,3.3,2.9,3.8,2.9h1.1v2h-2V3.8c0-0.5-0.5-0.7-0.9-0.3L0.3,5.2c-0.4,0.4-0.4,1,0,1.4l1.8,1.7	c0.4,0.4,0.8,0.3,0.8-0.3V6.9h2v2H3.8c-0.5,0-0.7,0.5-0.3,0.9l1.7,1.8c0.4,0.4,1,0.4,1.4,0l1.7-1.8c0.4-0.4,0.3-0.8-0.3-0.8H6.9v-2	h2v1.1c0,0.5,0.5,0.7,0.9,0.3l1.8-1.7C12,6.3,12,5.6,11.6,5.2z"/></svg>