<svg xmlns="http://www.w3.org/2000/svg" xmlns:xlink="http://www.w3.org/1999/xlink" width="16" height="16" x="0" y="0" style="overflow:visible;enable-background:new 0 -.2 16 16" preserveAspectRatio="xMinYMid meet" version="1.1" viewBox="0 -0.2 16 16" xml:space="preserve"><path style="fill:#999" d="M12.2,0c1.6,0.7,2.9,2,3.5,3.5L9.8,6L12.2,0z M12.5,6.7l-6,2.5l0,0l0,0l6,2.5c0,0,0,0,0,0h0	C13.3,9.8,13.1,8.2,12.5,6.7z M12.5,11.7C12.5,11.7,12.5,11.7,12.5,11.7l-12-5c0,0,0,0,0,0C-0.9,10,0.7,13.8,4,15.2	C7.3,16.6,11.1,15,12.5,11.7z M9,3.2C5.3,1.7,2,3,0.5,6.7l6,2.5L9,3.2z"/></svg>