<svg xmlns="http://www.w3.org/2000/svg" xmlns:xlink="http://www.w3.org/1999/xlink" width="16" height="16" x="0" y="0" style="overflow:visible;enable-background:new 0 0 16 16" preserveAspectRatio="xMinYMid meet" version="1.1" viewBox="0 0 16 16" xml:space="preserve"><path style="fill:#999" d="M11,0C8.3,0,6,2.2,6,5c0,0.4,0.1,0.9,0.2,1.3L0,12.5v2.1l6.9-6.9C6.9,7.8,7,7.9,7,8l-7,7v1h2v-1h2v-2	h2h0v-2h2l1.3-1.3C9.9,9.8,10.4,10,11,10c2.8,0,5-2.2,5-5S13.8,0,11,0z M12.5,2C13.3,2,14,2.7,14,3.5S13.3,5,12.5,5S11,4.3,11,3.5	S11.7,2,12.5,2z"/></svg>