<svg xmlns="http://www.w3.org/2000/svg" xmlns:xlink="http://www.w3.org/1999/xlink" width="16" height="16" x="0" y="0" style="overflow:visible;enable-background:new 0 0 16 16" preserveAspectRatio="xMinYMid meet" version="1.1" viewBox="0 0 16 16" xml:space="preserve"><path style="fill:#999" d="M7,0H5.6L0,5.6V7v9h16V0H7z M14,14H2V7h5V2h7V14z M7,13H3v-1h4V13z M7,11H3v-1h4V11z M7,9H3V8h4V9z M10,13H8v-1h2V13z M10,11H8v-1h2V11z M10,9H8V8h2V9z M13,13h-2v-1h2V13z M13,11h-2v-1h2V11z M13,9h-2V8h2V9z"/></svg>