<svg xmlns="http://www.w3.org/2000/svg" xmlns:xlink="http://www.w3.org/1999/xlink" width="16" height="16" x="0" y="0" style="overflow:visible;enable-background:new 0 -.1 16 16" preserveAspectRatio="xMinYMid meet" version="1.1" viewBox="0 -0.1 16 16" xml:space="preserve"><path style="fill:#999" d="M8,0c-4,0-7.4,3-7.8,6.9h3c0.5-2.3,2.5-4,4.9-4c2.8,0,5,2.2,5,5c0,2.8-2.2,5-5,5c-1.1,0-2.1-0.4-3-1	h1c0.6,0,1-0.4,1-1v-1c0-0.6-0.4-1-1-1H2H1c-0.6,0-1,0.4-1,1v1v4c0,0.6,0.4,1,1,1h1c0.6,0,1-0.4,1-1v-0.9c1.4,1.1,3.1,1.8,5,1.8	c4.4,0,7.9-3.5,7.9-7.9C15.9,3.5,12.3,0,8,0z"/></svg>