<svg xmlns="http://www.w3.org/2000/svg" xmlns:xlink="http://www.w3.org/1999/xlink" width="16" height="16" x="0" y="0" style="overflow:visible;enable-background:new -.1 -.2 16 16" preserveAspectRatio="xMinYMid meet" version="1.1" viewBox="-0.1 -0.2 16 16" xml:space="preserve"><path style="fill:#cc6aff" d="M7,0.7L0.2,14.1c-0.5,1,0,1.8,1.1,1.8h13.2c1.1,0,1.6-0.8,1.1-1.8L8.8,0.7C8.3-0.2,7.5-0.2,7,0.7z M11.9,9.4h-0.5l-1,5.5h-5l-1-5.5H3.9l0-1h0.3l0-0.1c0,0,0.8-0.7,2.5-1V6.9c0-0.5,0.5-1,1-1h0.5c0.5,0,1,0.5,1,1v0.4	c1.7,0.3,2.5,1,2.5,1l0,0.1h0.3V9.4z M7.4,9.4v4.5h-1V9.4H7.4z M8.4,9.4h1v4.5h-1V9.4z M7.9,7.1c-0.2,0-0.3,0-0.5,0c0,0,0-0.1,0-0.1	c0-0.3,0.2-0.5,0.5-0.5c0.3,0,0.5,0.2,0.5,0.5c0,0,0,0.1,0,0.1C8.3,7.1,8.1,7.1,7.9,7.1z"/></svg>