<svg xmlns="http://www.w3.org/2000/svg" xmlns:xlink="http://www.w3.org/1999/xlink" width="16" height="16" x="0" y="0" style="overflow:visible;enable-background:new -.1 -.1 16 16" preserveAspectRatio="xMinYMid meet" version="1.1" viewBox="-0.1 -0.1 16 16" xml:space="preserve"><path style="fill:#999" d="M15.6,14.1l-2.5-4.9c-0.5-1-1.3-2.6-1.8-3.6L8.8,0.7c-0.5-1-1.3-1-1.8,0L4.5,5.6	C4,6.6,3.2,8.2,2.7,9.2l-2.5,4.9c-0.5,1,0,1.8,1.1,1.8h4.6c1.1,0,2.9,0,4,0h4.6C15.6,15.9,16.1,15.1,15.6,14.1z M7.9,12.9H4.1L6,9.4	l1.9-3.5l1.9,3.5l1.9,3.5H7.9z"/></svg>