<svg xmlns="http://www.w3.org/2000/svg" xmlns:xlink="http://www.w3.org/1999/xlink" width="16" height="16" x="0" y="0" style="overflow:visible;enable-background:new -.1 -.1 16 16" preserveAspectRatio="xMinYMid meet" version="1.1" viewBox="-0.1 -0.1 16 16" xml:space="preserve"><path style="fill:#76a1f0" d="M7,0.7L0.2,14.1c-0.5,1,0,1.8,1.1,1.8l13.2,0c1.1,0,1.6-0.8,1.1-1.8L8.8,0.7C8.3-0.2,7.5-0.2,7,0.7z M10.6,9c0,1.2-0.7,2.1-1.8,2.5L9,11.9l1.1,2.4l-2.2,0l-2.2,0l1.1-2.4L7,11.5C6,11.1,5.2,10.1,5.2,9c0-1.5,1.2-2.7,2.7-2.7	C9.4,6.3,10.6,7.5,10.6,9z"/></svg>