<svg xmlns="http://www.w3.org/2000/svg" xmlns:xlink="http://www.w3.org/1999/xlink" width="16" height="16" x="0" y="0" style="overflow:visible;enable-background:new -.1 -.1 16 16" preserveAspectRatio="xMinYMid meet" version="1.1" viewBox="-0.1 -0.1 16 16" xml:space="preserve"><path style="fill:#ffb844" d="M15.6,14.1L8.8,0.7c-0.5-1-1.3-1-1.8,0L0.2,14.1c-0.5,1,0,1.8,1.1,1.8h13.2	C15.6,15.9,16.1,15.1,15.6,14.1z M8.3,6.5c0.6-0.6,1.5-0.6,2.1,0s0.6,1.5,0,2.1l-1,1L7.3,7.5L8.3,6.5z M5,13.9H2.9v-2.1l3.6-3.6	l2.1,2.1L5,13.9z M11.9,13.9h-5v-1h5V13.9z"/></svg>