<svg xmlns="http://www.w3.org/2000/svg" xmlns:xlink="http://www.w3.org/1999/xlink" width="16" height="16" x="0" y="0" style="overflow:visible;enable-background:new -.1 -.1 16 16" preserveAspectRatio="xMinYMid meet" version="1.1" viewBox="-0.1 -0.1 16 16" xml:space="preserve"><path style="fill:#ff403c" d="M7,0.7L0.2,14.1c-0.5,1,0,1.8,1.1,1.8l13.2,0c1.1,0,1.6-0.8,1.1-1.8L8.8,0.7C8.3-0.2,7.5-0.2,7,0.7z M9.4,13.4c0,0.8-0.7,1.5-1.5,1.5c-0.8,0-1.5-0.7-1.5-1.5c0-0.8,0.7-1.5,1.5-1.5C8.7,11.9,9.4,12.5,9.4,13.4z M9.2,5.9v4	c0,0.5-0.5,1-1,1l-0.6,0c-0.5,0-1-0.5-1-1v-4c0-0.6,0.5-1,1-1l0.6,0C8.8,4.9,9.2,5.3,9.2,5.9z"/></svg>