<svg xmlns="http://www.w3.org/2000/svg" xmlns:xlink="http://www.w3.org/1999/xlink" width="16" height="16" x="0" y="0" style="overflow:visible;enable-background:new 0 0 16 16" preserveAspectRatio="xMinYMid meet" version="1.1" viewBox="0 0 16 16" xml:space="preserve"><path style="fill:#999" d="M8,0C3.6,0,0,3.6,0,8c0,4.4,3.6,8,8,8c4.4,0,8-3.6,8-8C16,3.6,12.4,0,8,0z M8,14c-3.3,0-6-2.7-6-6	s2.7-6,6-6s6,2.7,6,6S11.3,14,8,14z M12,8c0,0.6-0.4,1-1,1H8C7.4,9,7,8.6,7,8V4c0-0.6,0.4-1,1-1s1,0.4,1,1v3h2C11.6,7,12,7.4,12,8z"/></svg>