<svg xmlns="http://www.w3.org/2000/svg" xmlns:xlink="http://www.w3.org/1999/xlink" width="16" height="16" x="0" y="0" style="overflow:visible;enable-background:new -.1 0 16 16" preserveAspectRatio="xMinYMid meet" version="1.1" viewBox="-0.1 0 16 16" xml:space="preserve"><path style="fill:#999" d="M15.6,8.6l-0.7,0.7c-0.4,0.4-1.1,0.4-1.4,0l-4-4v9.6c0,0.5-0.4,1.1-1,1.1h-1c-0.5,0-1-0.5-1-1.1V5.3	l-4,4C2,9.8,1.4,9.8,1,9.4L0.3,8.7c-0.4-0.4-0.4-1,0-1.4l7-7c0.4-0.4,1-0.4,1.4,0L9.4,1c0,0,0,0,0,0l6.2,6.2C16,7.6,16,8.2,15.6,8.6	z"/></svg>