<svg xmlns="http://www.w3.org/2000/svg" xmlns:xlink="http://www.w3.org/1999/xlink" width="24" height="24" x="0" y="0" style="overflow:visible;enable-background:new 0 0 24 24" preserveAspectRatio="xMinYMid meet" version="1.1" viewBox="0 0 24 24" xml:space="preserve"><linearGradient id="SVGID_1_" x1="11.957" x2="11.957" y1="0" y2="24" gradientUnits="userSpaceOnUse"><stop offset="0" style="stop-color:#95bff8"/><stop offset=".557" style="stop-color:#84adef"/><stop offset="1" style="stop-color:#7ca4eb"/></linearGradient><polygon style="fill:url(#SVGID_1_)" points="14.4 0 13.4 0 3 0 2 0 2 24 3 24 21 24 22 24 22 7.9"/><linearGradient id="SVGID_2_" x1="11.957" x2="11.957" y1="1" y2="23" gradientUnits="userSpaceOnUse"><stop offset="0" style="stop-color:#e7f4fc"/><stop offset="1" style="stop-color:#deeffc"/></linearGradient><polygon style="fill:url(#SVGID_2_)" points="14 1 13 1 4 1 3 1 3 23 4 23 20 23 21 23 21 8.3"/><linearGradient id="SVGID_3_" x1="11.957" x2="11.957" y1="2" y2="22" gradientUnits="userSpaceOnUse"><stop offset="0" style="stop-color:#cee9f9"/><stop offset="1" style="stop-color:#bbdff8"/></linearGradient><polygon style="fill:url(#SVGID_3_)" points="13.6 2 12.6 2 5 2 4 2 4 22 5 22 19 22 20 22 20 8.7"/><linearGradient id="SVGID_4_" x1="17.202" x2="17.202" y1="0" y2="9.359" gradientUnits="userSpaceOnUse"><stop offset="0" style="stop-color:#95bff8"/><stop offset=".557" style="stop-color:#84adef"/><stop offset="1" style="stop-color:#7ca4eb"/></linearGradient><path style="fill:url(#SVGID_4_)" d="M13,9c0,0,5.2-1.5,9,0.4c0-0.1,0-1.5,0-1.5L14.4,0c0,0-1.8,0-2,0C15.1,3.7,13,9,13,9z"/><linearGradient id="SVGID_5_" x1="14.279" x2="17.407" y1="7.545" y2="4.417" gradientUnits="userSpaceOnUse"><stop offset="0" style="stop-color:#e7f4fc"/><stop offset=".518" style="stop-color:#e5f3fc"/><stop offset=".705" style="stop-color:#def0fb"/><stop offset=".837" style="stop-color:#d3ebfa"/><stop offset=".872" style="stop-color:#cee9f9"/><stop offset="1" style="stop-color:#bdd8f0"/></linearGradient><path style="fill:url(#SVGID_5_)" d="M20.4,7.8c-0.9-0.2-2-0.3-3.1-0.3c-1.1,0-2.1,0.1-3,0.3c0.4-1.6,0.7-4.1-0.2-6.4L20.4,7.8z"/><g><linearGradient id="SVGID_6_" x1="11.857" x2="11.857" y1="1.852" y2="23.949" gradientUnits="userSpaceOnUse"><stop offset="0" style="stop-color:#db6d17"/><stop offset="1" style="stop-color:#bf3b08"/></linearGradient><polygon style="fill:url(#SVGID_6_)" points="8 16.9 3.2 11.9 0 15.1 8.8 23.9 23.7 1.9"/></g><g><linearGradient id="SVGID_7_" x1="9.552" x2="9.552" y1="9.008" y2="22.383" gradientUnits="userSpaceOnUse"><stop offset="0" style="stop-color:#f6a55e"/><stop offset="1" style="stop-color:#ea5b03"/></linearGradient><polygon style="fill:url(#SVGID_7_)" points="1.4 15.1 3.2 13.4 7.9 18.4 17.7 9 8.7 22.4"/></g><g><linearGradient id="SVGID_8_" x1="7.248" x2="7.248" y1="14.8" y2="20.817" gradientUnits="userSpaceOnUse"><stop offset="0" style="stop-color:#f17219"/><stop offset="1" style="stop-color:#ea5b03"/></linearGradient><polygon style="fill:url(#SVGID_8_)" points="2.8 15.1 3.1 14.8 7.9 19.8 11.7 16.2 8.5 20.8"/></g></svg>