<svg xmlns="http://www.w3.org/2000/svg" xmlns:xlink="http://www.w3.org/1999/xlink" width="16" height="16" x="0" y="0" style="overflow:visible;enable-background:new 0 0 16 16" preserveAspectRatio="xMinYMid meet" version="1.1" viewBox="0 0 16 16" xml:space="preserve"><path style="fill:#999" d="M7.9,16c4,0,7.4-3,7.8-7h-3c-0.5,2-2.5,4-4.9,4c-2.8,0-5-2.2-5-5c0-2.8,2.2-5,5-5c1.1,0,2.1,0,3,1h-1	C9.3,4,9,4.5,9,5.1v1C9,6.6,9.3,7,9.8,7h4h1C15.4,7,16,6.6,16,6.1v-1v-4C16,0.5,15.4,0,14.8,0h-1C13.3,0,13,0.5,13,1.1v0.9	c-1-1.1-3.1-1.8-5-1.8C3.6,0.2,0,3.7,0,8.1C0,12.4,3.5,16,7.9,16z"/></svg>