<svg xmlns="http://www.w3.org/2000/svg" xmlns:xlink="http://www.w3.org/1999/xlink" width="16" height="16" x="0" y="0" style="overflow:visible;enable-background:new -1 0 16 16" preserveAspectRatio="xMinYMid meet" version="1.1" viewBox="-1 0 16 16" xml:space="preserve"><path style="fill:#999" d="M10,15H8H1.2C1.1,15,1,14.9,1,14.7V1.2C1,1.1,1.1,1,1.2,1H9v4h4v4h1V5.2c0-0.7-0.4-1.6-0.9-2.1	l-2.2-2.2C10.4,0.4,9.4,0,8.8,0H1.2C0.6,0,0,0.6,0,1.2v13.5C0,15.4,0.6,16,1.2,16H10V15z M10,1.4c0.1,0,2.5,2.5,2.6,2.6H10V1.4z M15,14h-2v2h-2v-2H9v-2h2v-2h2v2h2V14z"/></svg>