<svg xmlns="http://www.w3.org/2000/svg" xmlns:xlink="http://www.w3.org/1999/xlink" width="24" height="24" x="0" y="0" style="overflow:visible;enable-background:new 0 0 24 24" preserveAspectRatio="xMinYMid meet" version="1.1" viewBox="0 0 24 24" xml:space="preserve"><linearGradient id="SVGID_1_" x1="5.5" x2="5.5" y1="10" y2="14.001" gradientUnits="userSpaceOnUse"><stop offset="0" style="stop-color:#95bff8"/><stop offset=".557" style="stop-color:#84adef"/><stop offset="1" style="stop-color:#7ca4eb"/></linearGradient><rect style="fill:url(#SVGID_1_)" width="1" height="4" x="5" y="10"/><linearGradient id="SVGID_2_" x1="15" x2="15" y1="5" y2="9" gradientUnits="userSpaceOnUse"><stop offset="0" style="stop-color:#95bff8"/><stop offset=".557" style="stop-color:#84adef"/><stop offset="1" style="stop-color:#7ca4eb"/></linearGradient><polygon style="fill:url(#SVGID_2_)" points="18 5 11 5 11 6 18 6 18 9 19 9 19 6 19 5"/><linearGradient id="SVGID_3_" x1="5.5" x2="5.5" y1="14" y2="24" gradientUnits="userSpaceOnUse"><stop offset="0" style="stop-color:#76a1f0"/><stop offset="1" style="stop-color:#6b90d5"/></linearGradient><path style="fill:url(#SVGID_3_)" d="M10,14H1c-0.6,0-1,0.4-1,1v1v7v1h1h9h1v-1v-7v-1C11,14.4,10.6,14,10,14z"/><linearGradient id="SVGID_4_" x1="5.5" x2="5.5" y1="17" y2="23" gradientUnits="userSpaceOnUse"><stop offset="0" style="stop-color:#e7f4fc"/><stop offset="1" style="stop-color:#deeffc"/></linearGradient><rect style="fill:url(#SVGID_4_)" width="9" height="6" x="1" y="17"/><linearGradient id="SVGID_5_" x1="5.5" x2="5.5" y1="18" y2="22" gradientUnits="userSpaceOnUse"><stop offset="0" style="stop-color:#cee9f9"/><stop offset="1" style="stop-color:#bbdff8"/></linearGradient><rect style="fill:url(#SVGID_5_)" width="7" height="4" x="2" y="18"/><linearGradient id="SVGID_6_" x1="5.5" x2="5.5" y1="15" y2="16" gradientUnits="userSpaceOnUse"><stop offset="0" style="stop-color:#bbe0f7"/><stop offset="1" style="stop-color:#82b4fb"/></linearGradient><rect style="fill:url(#SVGID_6_)" width="9" height="1" x="1" y="15"/><linearGradient id="SVGID_7_" x1="18.5" x2="18.5" y1="9" y2="19" gradientUnits="userSpaceOnUse"><stop offset="0" style="stop-color:#76a1f0"/><stop offset="1" style="stop-color:#6b90d5"/></linearGradient><path style="fill:url(#SVGID_7_)" d="M23,9h-9c-0.6,0-1,0.4-1,1v1v7v1h1h9h1v-1v-7v-1C24,9.4,23.6,9,23,9z"/><linearGradient id="SVGID_8_" x1="18.5" x2="18.5" y1="12" y2="18" gradientUnits="userSpaceOnUse"><stop offset="0" style="stop-color:#e7f4fc"/><stop offset="1" style="stop-color:#deeffc"/></linearGradient><rect style="fill:url(#SVGID_8_)" width="9" height="6" x="14" y="12"/><linearGradient id="SVGID_9_" x1="18.5" x2="18.5" y1="13" y2="17" gradientUnits="userSpaceOnUse"><stop offset="0" style="stop-color:#cee9f9"/><stop offset="1" style="stop-color:#bbdff8"/></linearGradient><rect style="fill:url(#SVGID_9_)" width="7" height="4" x="15" y="13"/><linearGradient id="SVGID_10_" x1="18.5" x2="18.5" y1="10" y2="11" gradientUnits="userSpaceOnUse"><stop offset="0" style="stop-color:#bbe0f7"/><stop offset="1" style="stop-color:#82b4fb"/></linearGradient><rect style="fill:url(#SVGID_10_)" width="9" height="1" x="14" y="10"/><linearGradient id="SVGID_11_" x1="5.5" x2="5.5" y1="0" y2="10" gradientUnits="userSpaceOnUse"><stop offset="0" style="stop-color:#76a1f0"/><stop offset="1" style="stop-color:#6b90d5"/></linearGradient><path style="fill:url(#SVGID_11_)" d="M10,0H1C0.4,0,0,0.4,0,1v1v7v1h1h9h1V9V2V1C11,0.4,10.6,0,10,0z"/><linearGradient id="SVGID_12_" x1="5.5" x2="5.5" y1="3" y2="9" gradientUnits="userSpaceOnUse"><stop offset="0" style="stop-color:#e7f4fc"/><stop offset="1" style="stop-color:#deeffc"/></linearGradient><rect style="fill:url(#SVGID_12_)" width="9" height="6" x="1" y="3"/><linearGradient id="SVGID_13_" x1="5.5" x2="5.5" y1="4" y2="8" gradientUnits="userSpaceOnUse"><stop offset="0" style="stop-color:#cee9f9"/><stop offset="1" style="stop-color:#bbdff8"/></linearGradient><rect style="fill:url(#SVGID_13_)" width="7" height="4" x="2" y="4"/><linearGradient id="SVGID_14_" x1="5.5" x2="5.5" y1="1" y2="2" gradientUnits="userSpaceOnUse"><stop offset="0" style="stop-color:#bbe0f7"/><stop offset="1" style="stop-color:#82b4fb"/></linearGradient><rect style="fill:url(#SVGID_14_)" width="9" height="1" x="1" y="1"/></svg>